<mxfile host="app.diagrams.net">
    <diagram id="architecture" name="Architecture">
        <mxGraphModel dx="1174" dy="834" grid="1" gridSize="10" guides="1" tooltips="1" connect="1" arrows="1" fold="1" page="1" pageScale="1" pageWidth="1169" pageHeight="827" math="0" shadow="0">
            <root>
                <mxCell id="0"/>
                <mxCell id="1" parent="0"/>
                <mxCell id="2" value="App" style="rounded=1;whiteSpace=wrap;html=1;fillColor=#FFFFFF;strokeColor=#000000;" vertex="1" parent="1">
                    <mxGeometry x="80" y="180" width="120" height="60" as="geometry"/>
                </mxCell>
                <mxCell id="3" value="LogCollector (Go)" style="rounded=1;whiteSpace=wrap;html=1;fillColor=#BBCCFF;strokeColor=#000000;" vertex="1" parent="1">
                    <mxGeometry x="260" y="180" width="160" height="60" as="geometry"/>
                </mxCell>
                <mxCell id="4" value="ElasticSearch" style="rounded=1;whiteSpace=wrap;html=1;fillColor=#FFBBFF;strokeColor=#000000;" vertex="1" parent="1">
                    <mxGeometry x="480" y="180" width="140" height="60" as="geometry"/>
                </mxCell>
                <mxCell id="5" value="AnomalyDetector (Python)" style="rounded=1;whiteSpace=wrap;html=1;fillColor=#BBFFBB;strokeColor=#000000;" vertex="1" parent="1">
                    <mxGeometry x="680" y="180" width="200" height="60" as="geometry"/>
                </mxCell>
                <mxCell id="6" style="edgeStyle=orthogonalEdgeStyle;rounded=0;orthogonalLoop=1;jettySize=auto;html=1;endArrow=block;endFill=1;strokeColor=#000000;" edge="1" parent="1" source="2" target="3">
                    <mxGeometry relative="1" as="geometry"/>
                </mxCell>
                <mxCell id="7" style="edgeStyle=orthogonalEdgeStyle;rounded=0;orthogonalLoop=1;jettySize=auto;html=1;endArrow=block;endFill=1;strokeColor=#000000;" edge="1" parent="1" source="3" target="4">
                    <mxGeometry relative="1" as="geometry"/>
                </mxCell>
                <mxCell id="8" style="edgeStyle=orthogonalEdgeStyle;rounded=0;orthogonalLoop=1;jettySize=auto;html=1;endArrow=block;endFill=1;strokeColor=#000000;" edge="1" parent="1" source="4" target="5">
                    <mxGeometry relative="1" as="geometry"/>
                </mxCell>
            </root>
        </mxGraphModel>
    </diagram>
</mxfile>